<?xml version="1.0" standalone="no"?>
<!DOCTYPE svg PUBLIC "-//W3C//DTD SVG 20010904//EN"
 "http://www.w3.org/TR/2001/REC-SVG-20010904/DTD/svg10.dtd">
<svg version="1.0" xmlns="http://www.w3.org/2000/svg"
 width="285.000000pt" height="87.000000pt" viewBox="0 0 285.000000 87.000000"
 preserveAspectRatio="xMidYMid meet">

<g transform="translate(0.000000,87.000000) scale(0.100000,-0.100000)"
fill="#000000" stroke="none">
<path d="M475 816 c-17 -18 -41 -58 -52 -87 -13 -34 -26 -53 -35 -51 -35 9
-119 14 -142 8 -85 -21 -86 -95 -3 -198 l30 -38 -30 -37 c-83 -104 -82 -178 3
-199 23 -6 105 -2 143 8 9 2 21 -15 33 -47 57 -149 142 -163 207 -34 17 34 31
68 31 75 0 9 10 10 38 3 178 -41 246 54 130 185 l-40 46 37 41 c120 133 54
232 -127 190 -28 -7 -38 -6 -38 3 0 31 -63 137 -90 151 -43 22 -59 19 -95 -19z
m105 -16 c25 -26 69 -127 59 -134 -2 -1 -26 -11 -54 -22 l-50 -20 -52 21 c-31
12 -53 26 -53 35 0 28 48 117 71 134 33 23 47 20 79 -14z m-210 -139 c23 -7
25 -11 22 -62 -3 -49 -8 -57 -45 -91 -23 -20 -48 -37 -54 -38 -19 0 -82 90
-89 129 -6 28 -3 38 16 53 23 19 99 23 150 9z m463 0 c33 -13 41 -42 23 -85
-17 -42 -67 -106 -81 -106 -5 0 -29 17 -52 38 -38 34 -42 42 -45 91 -3 51 -1
55 22 62 37 10 105 10 133 0z m-364 -32 c17 -6 31 -14 31 -18 0 -6 -31 -25
-82 -49 -9 -4 -11 40 -2 62 7 19 11 19 53 5z m186 -25 c3 -20 4 -38 2 -41 -6
-5 -87 39 -87 48 0 8 42 28 61 28 11 1 19 -11 24 -35z m-63 -36 c64 -34 78
-55 78 -118 0 -63 -13 -84 -79 -119 l-61 -32 -47 27 c-81 46 -83 49 -83 124 0
51 4 71 17 81 15 13 104 67 112 68 2 1 30 -13 63 -31z m-212 -118 c0 -27 -3
-50 -7 -50 -5 0 -21 12 -37 26 l-29 26 29 24 c16 13 32 23 37 24 4 0 7 -22 7
-50z m350 25 l23 -25 -23 -25 c-13 -14 -27 -25 -32 -25 -4 0 -8 23 -8 50 0 28
4 50 8 50 5 0 19 -11 32 -25z m-383 -83 c37 -34 42 -42 45 -91 3 -51 1 -55
-22 -62 -51 -14 -127 -10 -150 9 -19 15 -22 25 -16 53 7 39 70 129 89 129 6
-1 31 -18 54 -38z m466 3 c69 -86 69 -148 2 -161 -36 -6 -118 0 -136 12 -5 3
-7 28 -3 57 5 45 12 57 47 89 23 21 47 38 52 38 6 0 23 -16 38 -35z m-350 -80
c20 -10 37 -22 37 -26 0 -4 -16 -13 -36 -19 -30 -10 -38 -10 -45 1 -11 17 -12
72 -1 67 4 -2 24 -12 45 -23z m197 16 c0 -31 -15 -71 -26 -71 -17 0 -64 21
-64 29 0 7 71 50 83 51 4 0 7 -4 7 -9z m-25 -121 c-11 -47 -51 -115 -77 -129
-23 -13 -29 -13 -53 3 -26 17 -75 106 -75 136 0 9 21 23 52 35 l53 21 53 -21
c47 -18 52 -22 47 -45z"/>
<path d="M485 510 c-4 -6 -4 -14 -1 -17 3 -4 6 -1 6 5 0 7 9 12 21 12 19 0 20
-5 17 -65 -2 -39 1 -65 7 -65 6 0 9 26 7 65 -3 59 -2 65 16 65 11 0 23 -5 25
-10 3 -6 4 -5 3 2 -3 17 -92 23 -101 8z"/>
<path d="M1148 563 c8 -3 12 -34 12 -103 0 -69 -4 -100 -12 -103 -7 -3 1 -5
17 -5 17 0 24 2 18 5 -18 7 -16 59 3 77 20 21 50 20 58 0 12 -32 6 -72 -11
-77 -10 -3 -2 -5 17 -5 19 0 29 2 23 5 -7 2 -13 20 -13 38 0 63 -23 80 -71 55
-18 -10 -19 -7 -19 55 0 56 -3 65 -17 64 -11 0 -13 -3 -5 -6z"/>
<path d="M951 533 c0 -27 0 -28 10 -5 7 18 15 23 36 20 l28 -3 3 -92 c2 -81 1
-92 -15 -96 -10 -3 -2 -5 17 -6 22 0 30 2 22 7 -9 6 -12 33 -10 98 3 89 3 89
31 92 21 3 29 -2 36 -20 10 -23 10 -22 10 5 l1 27 -85 0 -85 0 1 -27z"/>
<path d="M1580 543 c-39 -27 -49 -45 -50 -90 0 -74 70 -128 135 -103 20 8 25
16 25 45 0 37 -15 50 -47 42 -16 -4 -15 -6 5 -12 16 -5 22 -15 22 -36 0 -27
-3 -29 -37 -29 -57 1 -93 38 -93 95 0 58 55 102 113 90 24 -5 28 -4 17 4 -22
16 -62 13 -90 -6z"/>
<path d="M2432 498 c-1 -25 -7 -38 -19 -41 -17 -4 -17 -5 0 -6 14 -1 17 -10
17 -51 0 -46 2 -50 23 -49 16 1 18 2 5 6 -14 3 -18 15 -18 48 0 37 3 44 23 48
22 4 22 4 0 6 -18 1 -23 8 -26 39 l-4 37 -1 -37z"/>
<path d="M1313 434 c-15 -24 -15 -29 -2 -53 15 -27 63 -41 81 -23 6 6 0 8 -15
5 -14 -3 -33 0 -44 5 -16 9 -12 13 30 31 49 21 55 29 35 49 -22 22 -66 14 -85
-14z m74 0 c2 -7 -10 -17 -28 -23 -40 -14 -39 -14 -39 2 0 32 58 50 67 21z"/>
<path d="M1727 442 c-41 -45 -9 -98 56 -93 30 2 18 16 -15 16 -17 0 -33 6 -35
13 -3 6 0 12 5 12 5 0 26 7 47 16 36 15 37 16 19 35 -22 24 -56 25 -77 1z m70
-7 c3 -9 -49 -35 -70 -35 -12 0 -7 18 9 35 18 17 55 17 61 0z"/>
<path d="M1848 453 c7 -3 12 -23 12 -48 0 -25 -5 -45 -12 -48 -7 -3 3 -6 22
-6 23 0 30 2 22 8 -18 11 -11 71 9 84 29 18 49 1 49 -42 0 -22 -5 -42 -12 -44
-7 -3 1 -6 17 -6 17 0 25 3 18 7 -6 4 -13 28 -15 52 -3 38 -6 45 -26 48 -13 2
-29 -2 -37 -8 -9 -7 -15 -8 -20 0 -3 5 -14 10 -23 9 -11 0 -12 -3 -4 -6z"/>
<path d="M2025 444 c-23 -24 -16 -76 13 -90 23 -11 62 -8 62 5 0 3 -14 6 -32
6 -44 0 -46 21 -4 35 43 14 52 26 36 45 -16 20 -55 19 -75 -1z m62 -10 c3 -10
-37 -34 -57 -34 -14 0 -12 24 2 38 15 15 50 12 55 -4z"/>
<path d="M2148 453 c7 -3 12 -23 12 -48 0 -25 -5 -45 -12 -48 -7 -3 3 -5 22
-5 19 0 27 2 18 5 -30 8 -19 78 14 89 11 3 17 8 15 11 -3 2 -15 0 -26 -7 -14
-7 -21 -7 -21 0 0 5 -8 10 -17 9 -11 0 -13 -3 -5 -6z"/>
<path d="M2256 438 c-9 -12 -16 -30 -16 -39 0 -23 34 -50 61 -49 13 0 38 1 54
1 17 0 24 3 18 6 -8 3 -13 24 -13 56 0 33 -3 47 -9 38 -6 -9 -11 -10 -15 -2
-13 20 -64 13 -80 -11z m79 -8 c15 -17 16 -24 7 -46 -10 -20 -18 -25 -43 -22
-39 4 -55 35 -33 67 19 26 46 27 69 1z"/>
<path d="M2517 442 c-34 -38 -11 -94 38 -94 36 0 68 36 59 66 -13 46 -67 61
-97 28z m71 -4 c28 -28 7 -78 -33 -78 -42 0 -59 44 -29 74 18 19 45 21 62 4z"/>
<path d="M2648 453 c7 -3 12 -23 12 -48 0 -25 -5 -45 -12 -48 -7 -3 1 -5 17
-5 17 0 24 2 18 5 -30 12 -4 93 29 93 6 0 9 3 6 6 -4 3 -16 1 -27 -6 -14 -7
-21 -7 -21 0 0 5 -8 10 -17 9 -11 0 -13 -3 -5 -6z"/>
</g>
</svg>
