<svg version="1.1" id="Layer_1" xmlns="http://www.w3.org/2000/svg" xmlns:xlink="http://www.w3.org/1999/xlink" x="0px" y="0px"
	 width="100%" viewBox="0 0 172 122" enable-background="new 0 0 172 122" xml:space="preserve">
<path fill="none" opacity="1.000000" stroke="#000000" stroke-linecap="round" stroke-linejoin="round" stroke-width="3.000000"
	d="
M86.000000,37.500000 
	C74.709984,30.944706 62.562553,27.637987 49.504658,28.565584 
	C41.477726,29.135799 38.224281,35.989483 42.041187,43.980328 
	C44.951946,50.074123 49.336842,55.164036 54.560963,60.009106 
	C49.410477,64.891190 44.817291,69.751381 41.977097,75.989571 
	C37.910343,84.921776 41.735668,91.343353 52.000401,91.466446 
	C63.816093,91.608139 74.890396,88.811760 85.023842,82.538506 
	C86.607216,81.558296 88.176857,81.950981 90.050781,82.899689 
	C100.226128,88.051201 110.846329,91.666924 122.500565,91.562927 
	C127.367607,91.519485 131.592316,90.434464 133.928955,85.962875 
	C136.079193,81.848000 134.399567,77.685387 132.421036,74.042892 
	C129.517609,68.697678 125.180290,64.381668 120.419792,60.000267 
	C125.845993,55.014641 130.445267,49.857632 133.513901,43.506718 
	C137.458328,35.343281 133.186432,28.680389 124.001030,28.457623 
	C117.503204,28.300035 111.175102,28.964125 105.000000,31.000000 
"/>
<path fill="none" opacity="1.000000" stroke="#000000" stroke-linecap="round" stroke-linejoin="round" stroke-width="3.000000"
	d="
M106.000000,47.500000 
	C107.024620,38.396381 103.863327,29.989910 101.383835,21.534063 
	C100.441177,18.319298 98.788368,15.242125 96.569420,12.444932 
	C90.063095,4.243108 82.682365,4.423866 77.555931,13.531483 
	C73.036919,21.559973 70.510811,30.357082 69.600388,39.509987 
	C69.338142,42.146477 67.495331,44.728874 69.000000,47.500000 
"/>
<path fill="none" opacity="1.000000" stroke="#000000" stroke-linecap="round" stroke-linejoin="round" stroke-width="3.000000"
	d="
M68.000000,50.500000 
	C68.539696,56.489639 67.917252,62.482719 68.380547,68.509186 
	C69.418320,82.008553 70.780052,95.308113 78.501541,106.998985 
	C85.341927,117.355820 92.557289,114.025024 96.916306,106.948448 
	C103.185638,96.770592 105.838570,85.294014 106.253098,73.491325 
	C106.350639,70.714081 107.849335,70.529106 109.034195,69.541000 
	C112.757462,66.436035 116.982826,63.918709 120.439346,59.940845 
	C116.694534,56.194336 113.231987,52.578819 108.500000,50.500000 
"/>
<path fill="none" opacity="1.000000" stroke="#000000" stroke-linecap="round" stroke-linejoin="round" stroke-width="3.000000"
	d="
M67.500000,69.500000 
	C62.309364,67.922180 59.390278,63.189430 54.312668,60.424950 
	C59.256268,54.723480 65.299294,51.025158 71.046684,47.067802 
	C75.648972,43.898911 80.722511,41.422138 85.462761,38.440796 
	C86.729691,37.643967 87.610603,37.158588 89.011185,37.980953 
	C94.483795,41.194260 100.075333,44.213593 105.443085,47.590469 
	C106.670532,48.362667 107.282120,49.658962 107.410011,51.977383 
	C107.731689,57.808929 106.200478,63.750450 108.000000,69.500000 
"/>
<path fill="none" opacity="1.000000" stroke="#000000" stroke-linecap="round" stroke-linejoin="round" stroke-width="3.000000"
	d="
M105.500000,72.500000 
	C100.169785,75.489990 94.343857,77.691940 90.000000,82.250000 
"/>
<path fill="none" opacity="1.000000" stroke="#000000" stroke-linecap="round" stroke-linejoin="round" stroke-width="3.000000"
	d="
M85.000000,82.250000 
	C80.867104,77.356575 74.889641,75.395531 69.500000,72.500000 
"/>
<path fill="none" opacity="1.000000" stroke="#000000" stroke-linecap="round" stroke-linejoin="round" stroke-width="2.000000"
	d="
M87.500000,52.500000 
	C87.500000,57.666668 87.500000,62.833332 87.500000,68.000000 
"/>
<path fill="none" opacity="1.000000" stroke="#000000" stroke-linecap="round" stroke-linejoin="round" stroke-width="3.000000"
	d="
M104.000000,31.500000 
	C98.960052,33.031006 93.568878,33.792030 89.750000,38.000000 
"/>
<path fill="none" opacity="1.000000" stroke="#000000" stroke-linecap="round" stroke-linejoin="round" stroke-width="2.000000"
	d="
M81.000000,53.000000 
	C85.005661,49.660172 89.692238,52.264538 94.020515,51.642860 
	C94.923065,51.513222 94.254951,53.513065 94.500000,54.500000 
"/>
<path fill="none" opacity="1.000000" stroke="#000000" stroke-linecap="round" stroke-linejoin="round" stroke-width="2.000000"
	d="
M89.500000,68.500000 
	C88.166664,68.500000 86.833336,68.500000 85.500000,68.500000 
"/>
</svg>